<mxfile host="app.diagrams.net" agent="Mozilla/5.0 (Windows NT 10.0; Win64; x64) AppleWebKit/537.36 (KHTML, like Gecko) Chrome/135.0.0.0 Safari/537.36" version="26.2.13">
  <diagram name="Page-1" id="GxYWx7uD6XEsV7WJWU78">
    <mxGraphModel dx="2040" dy="1848" grid="1" gridSize="10" guides="1" tooltips="1" connect="1" arrows="1" fold="1" page="1" pageScale="1" pageWidth="850" pageHeight="1100" math="0" shadow="0">
      <root>
        <mxCell id="0" />
        <mxCell id="1" parent="0" />
        <mxCell id="hhd_9V6kLo_qXtEUQ70--1" value="&lt;font style=&quot;font-size: 14px;&quot;&gt;&lt;b&gt;Φοιτητής&lt;/b&gt;&lt;/font&gt;" style="shape=umlActor;verticalLabelPosition=bottom;verticalAlign=top;html=1;outlineConnect=0;" vertex="1" parent="1">
          <mxGeometry x="20" y="240" width="30" height="60" as="geometry" />
        </mxCell>
        <mxCell id="hhd_9V6kLo_qXtEUQ70--2" value="" style="shape=umlBoundary;whiteSpace=wrap;html=1;" vertex="1" parent="1">
          <mxGeometry x="240" y="140" width="100" height="80" as="geometry" />
        </mxCell>
        <mxCell id="hhd_9V6kLo_qXtEUQ70--3" value="" style="endArrow=classic;html=1;rounded=0;strokeColor=#0066CC;" edge="1" parent="1" source="hhd_9V6kLo_qXtEUQ70--1" target="hhd_9V6kLo_qXtEUQ70--2">
          <mxGeometry width="50" height="50" relative="1" as="geometry">
            <mxPoint x="320" y="450" as="sourcePoint" />
            <mxPoint x="370" y="400" as="targetPoint" />
          </mxGeometry>
        </mxCell>
        <mxCell id="hhd_9V6kLo_qXtEUQ70--4" value="Υποβολή αίτησης" style="text;html=1;align=center;verticalAlign=middle;resizable=0;points=[];autosize=1;strokeColor=none;fillColor=none;fontSize=13;fontStyle=2;rotation=-25;fontColor=#0066CC;" vertex="1" parent="1">
          <mxGeometry x="100" y="200" width="120" height="30" as="geometry" />
        </mxCell>
        <mxCell id="hhd_9V6kLo_qXtEUQ70--5" value="Homepage" style="text;html=1;align=center;verticalAlign=middle;resizable=0;points=[];autosize=1;strokeColor=none;fillColor=none;fontSize=14;fontStyle=1" vertex="1" parent="1">
          <mxGeometry x="255" y="108" width="90" height="30" as="geometry" />
        </mxCell>
        <mxCell id="hhd_9V6kLo_qXtEUQ70--6" value="Εμφάνιση διαθέσιμων θέσεων πρακτικής άσκησης" style="ellipse;shape=umlControl;whiteSpace=wrap;html=1;fontStyle=0" vertex="1" parent="1">
          <mxGeometry x="450" y="190" width="130" height="110" as="geometry" />
        </mxCell>
        <mxCell id="hhd_9V6kLo_qXtEUQ70--7" value="" style="endArrow=classic;html=1;rounded=0;" edge="1" parent="1" source="hhd_9V6kLo_qXtEUQ70--2" target="hhd_9V6kLo_qXtEUQ70--6">
          <mxGeometry width="50" height="50" relative="1" as="geometry">
            <mxPoint x="320" y="450" as="sourcePoint" />
            <mxPoint x="370" y="400" as="targetPoint" />
          </mxGeometry>
        </mxCell>
        <mxCell id="hhd_9V6kLo_qXtEUQ70--8" value="" style="shape=umlBoundary;whiteSpace=wrap;html=1;" vertex="1" parent="1">
          <mxGeometry x="230" y="330" width="100" height="80" as="geometry" />
        </mxCell>
        <mxCell id="hhd_9V6kLo_qXtEUQ70--9" value="View Available&amp;nbsp;&lt;div&gt;Traineeships&lt;/div&gt;" style="text;html=1;align=center;verticalAlign=middle;resizable=0;points=[];autosize=1;strokeColor=none;fillColor=none;fontSize=14;fontStyle=1" vertex="1" parent="1">
          <mxGeometry x="230" y="290" width="120" height="50" as="geometry" />
        </mxCell>
        <mxCell id="hhd_9V6kLo_qXtEUQ70--10" value="" style="endArrow=classic;html=1;rounded=0;" edge="1" parent="1" source="hhd_9V6kLo_qXtEUQ70--6" target="hhd_9V6kLo_qXtEUQ70--8">
          <mxGeometry width="50" height="50" relative="1" as="geometry">
            <mxPoint x="320" y="450" as="sourcePoint" />
            <mxPoint x="370" y="400" as="targetPoint" />
          </mxGeometry>
        </mxCell>
        <mxCell id="hhd_9V6kLo_qXtEUQ70--11" value="" style="endArrow=classic;html=1;rounded=0;" edge="1" parent="1" source="hhd_9V6kLo_qXtEUQ70--1" target="hhd_9V6kLo_qXtEUQ70--8">
          <mxGeometry width="50" height="50" relative="1" as="geometry">
            <mxPoint x="320" y="450" as="sourcePoint" />
            <mxPoint x="370" y="400" as="targetPoint" />
          </mxGeometry>
        </mxCell>
        <mxCell id="hhd_9V6kLo_qXtEUQ70--12" value="Επιλογή θέσεων πρακτικής&amp;nbsp;&lt;div&gt;για υποβολή αίτησης&lt;/div&gt;" style="text;html=1;align=center;verticalAlign=middle;resizable=0;points=[];autosize=1;strokeColor=none;fillColor=none;fontSize=13;fontStyle=2;rotation=15;" vertex="1" parent="1">
          <mxGeometry x="60" y="270" width="180" height="40" as="geometry" />
        </mxCell>
        <mxCell id="hhd_9V6kLo_qXtEUQ70--13" value="" style="ellipse;shape=umlEntity;whiteSpace=wrap;html=1;" vertex="1" parent="1">
          <mxGeometry x="670" y="220" width="80" height="80" as="geometry" />
        </mxCell>
        <mxCell id="hhd_9V6kLo_qXtEUQ70--14" value="Βάση Δεδομένων" style="text;html=1;align=center;verticalAlign=middle;resizable=0;points=[];autosize=1;strokeColor=none;fillColor=none;fontSize=14;fontStyle=1" vertex="1" parent="1">
          <mxGeometry x="645" y="190" width="130" height="30" as="geometry" />
        </mxCell>
        <mxCell id="hhd_9V6kLo_qXtEUQ70--15" value="" style="endArrow=classic;html=1;rounded=0;" edge="1" parent="1" source="hhd_9V6kLo_qXtEUQ70--6" target="hhd_9V6kLo_qXtEUQ70--13">
          <mxGeometry width="50" height="50" relative="1" as="geometry">
            <mxPoint x="320" y="450" as="sourcePoint" />
            <mxPoint x="370" y="400" as="targetPoint" />
          </mxGeometry>
        </mxCell>
        <mxCell id="hhd_9V6kLo_qXtEUQ70--16" value="Ενημέρωση διαθεσιμότητας θέσεων πρακτικής" style="ellipse;shape=umlControl;whiteSpace=wrap;html=1;" vertex="1" parent="1">
          <mxGeometry x="400" y="340" width="86" height="90" as="geometry" />
        </mxCell>
        <mxCell id="hhd_9V6kLo_qXtEUQ70--17" value="Δημιουργία αίτησης πρακτικής" style="ellipse;shape=umlControl;whiteSpace=wrap;html=1;" vertex="1" parent="1">
          <mxGeometry x="530" y="350" width="86" height="90" as="geometry" />
        </mxCell>
        <mxCell id="hhd_9V6kLo_qXtEUQ70--18" value="" style="ellipse;shape=umlEntity;whiteSpace=wrap;html=1;" vertex="1" parent="1">
          <mxGeometry x="670" y="355" width="80" height="80" as="geometry" />
        </mxCell>
        <mxCell id="hhd_9V6kLo_qXtEUQ70--19" value="Αίτηση Πρακτικής" style="text;html=1;align=center;verticalAlign=middle;resizable=0;points=[];autosize=1;strokeColor=none;fillColor=none;fontSize=14;fontStyle=1" vertex="1" parent="1">
          <mxGeometry x="645" y="330" width="130" height="30" as="geometry" />
        </mxCell>
        <mxCell id="hhd_9V6kLo_qXtEUQ70--20" value="" style="endArrow=classic;html=1;rounded=0;" edge="1" parent="1" source="hhd_9V6kLo_qXtEUQ70--8" target="hhd_9V6kLo_qXtEUQ70--16">
          <mxGeometry width="50" height="50" relative="1" as="geometry">
            <mxPoint x="320" y="450" as="sourcePoint" />
            <mxPoint x="370" y="400" as="targetPoint" />
          </mxGeometry>
        </mxCell>
        <mxCell id="hhd_9V6kLo_qXtEUQ70--21" value="" style="endArrow=classic;html=1;rounded=0;" edge="1" parent="1" source="hhd_9V6kLo_qXtEUQ70--16" target="hhd_9V6kLo_qXtEUQ70--17">
          <mxGeometry width="50" height="50" relative="1" as="geometry">
            <mxPoint x="320" y="450" as="sourcePoint" />
            <mxPoint x="370" y="400" as="targetPoint" />
          </mxGeometry>
        </mxCell>
        <mxCell id="hhd_9V6kLo_qXtEUQ70--22" value="" style="endArrow=classic;html=1;rounded=0;" edge="1" parent="1" source="hhd_9V6kLo_qXtEUQ70--17" target="hhd_9V6kLo_qXtEUQ70--18">
          <mxGeometry width="50" height="50" relative="1" as="geometry">
            <mxPoint x="320" y="450" as="sourcePoint" />
            <mxPoint x="370" y="400" as="targetPoint" />
          </mxGeometry>
        </mxCell>
        <mxCell id="hhd_9V6kLo_qXtEUQ70--23" value="" style="endArrow=classic;html=1;rounded=0;" edge="1" parent="1" source="hhd_9V6kLo_qXtEUQ70--17" target="hhd_9V6kLo_qXtEUQ70--13">
          <mxGeometry width="50" height="50" relative="1" as="geometry">
            <mxPoint x="320" y="450" as="sourcePoint" />
            <mxPoint x="370" y="400" as="targetPoint" />
          </mxGeometry>
        </mxCell>
        <mxCell id="hhd_9V6kLo_qXtEUQ70--24" value="Εμφάνιση μηνύματος επιτυχίας αίτησης" style="ellipse;shape=umlControl;whiteSpace=wrap;html=1;" vertex="1" parent="1">
          <mxGeometry x="400" y="460" width="86" height="90" as="geometry" />
        </mxCell>
        <mxCell id="hhd_9V6kLo_qXtEUQ70--25" value="" style="shape=umlBoundary;whiteSpace=wrap;html=1;" vertex="1" parent="1">
          <mxGeometry x="230" y="470" width="100" height="80" as="geometry" />
        </mxCell>
        <mxCell id="hhd_9V6kLo_qXtEUQ70--26" value="View Available&amp;nbsp;&lt;div&gt;Traineeships&lt;/div&gt;" style="text;html=1;align=center;verticalAlign=middle;resizable=0;points=[];autosize=1;strokeColor=none;fillColor=none;fontSize=14;fontStyle=1" vertex="1" parent="1">
          <mxGeometry x="230" y="420" width="120" height="50" as="geometry" />
        </mxCell>
        <mxCell id="hhd_9V6kLo_qXtEUQ70--27" value="" style="endArrow=classic;html=1;rounded=0;" edge="1" parent="1" source="hhd_9V6kLo_qXtEUQ70--24" target="hhd_9V6kLo_qXtEUQ70--25">
          <mxGeometry width="50" height="50" relative="1" as="geometry">
            <mxPoint x="320" y="450" as="sourcePoint" />
            <mxPoint x="370" y="400" as="targetPoint" />
          </mxGeometry>
        </mxCell>
        <mxCell id="hhd_9V6kLo_qXtEUQ70--28" value="" style="endArrow=classic;html=1;rounded=0;" edge="1" parent="1" source="hhd_9V6kLo_qXtEUQ70--17" target="hhd_9V6kLo_qXtEUQ70--24">
          <mxGeometry width="50" height="50" relative="1" as="geometry">
            <mxPoint x="320" y="450" as="sourcePoint" />
            <mxPoint x="370" y="400" as="targetPoint" />
          </mxGeometry>
        </mxCell>
        <mxCell id="hhd_9V6kLo_qXtEUQ70--29" value="" style="endArrow=classic;html=1;rounded=0;" edge="1" parent="1" source="hhd_9V6kLo_qXtEUQ70--1" target="hhd_9V6kLo_qXtEUQ70--25">
          <mxGeometry width="50" height="50" relative="1" as="geometry">
            <mxPoint x="60" y="286" as="sourcePoint" />
            <mxPoint x="240" y="360" as="targetPoint" />
          </mxGeometry>
        </mxCell>
        <mxCell id="hhd_9V6kLo_qXtEUQ70--30" value="" style="shape=umlBoundary;whiteSpace=wrap;html=1;strokeColor=light-dark(#FF3333,#ED0202);" vertex="1" parent="1">
          <mxGeometry x="190" y="10" width="100" height="80" as="geometry" />
        </mxCell>
        <mxCell id="hhd_9V6kLo_qXtEUQ70--31" value="" style="endArrow=classic;html=1;rounded=0;strokeColor=light-dark(#FF3333,#ED0202);" edge="1" parent="1" source="hhd_9V6kLo_qXtEUQ70--6" target="hhd_9V6kLo_qXtEUQ70--30">
          <mxGeometry width="50" height="50" relative="1" as="geometry">
            <mxPoint x="340" y="330" as="sourcePoint" />
            <mxPoint x="390" y="280" as="targetPoint" />
          </mxGeometry>
        </mxCell>
        <mxCell id="hhd_9V6kLo_qXtEUQ70--32" value="View Available&amp;nbsp;&lt;div&gt;Traineeships&lt;/div&gt;" style="text;html=1;align=center;verticalAlign=middle;resizable=0;points=[];autosize=1;strokeColor=none;fillColor=none;fontSize=14;fontStyle=1;fontColor=light-dark(#FF3333,#ED0202);" vertex="1" parent="1">
          <mxGeometry x="190" y="-40" width="120" height="50" as="geometry" />
        </mxCell>
        <mxCell id="hhd_9V6kLo_qXtEUQ70--33" value="Καμία διαθέσιμη&amp;nbsp;&lt;div&gt;θέση πρακτικής&lt;/div&gt;" style="text;html=1;align=center;verticalAlign=middle;resizable=0;points=[];autosize=1;strokeColor=none;fillColor=none;fontSize=13;fontStyle=2;fontColor=light-dark(#FF3333,#ED0202);rotation=30;" vertex="1" parent="1">
          <mxGeometry x="345" y="120" width="120" height="40" as="geometry" />
        </mxCell>
        <mxCell id="hhd_9V6kLo_qXtEUQ70--34" value="" style="endArrow=classic;html=1;rounded=0;strokeColor=light-dark(#FF3333,#ED0202);" edge="1" parent="1" source="hhd_9V6kLo_qXtEUQ70--1" target="hhd_9V6kLo_qXtEUQ70--30">
          <mxGeometry width="50" height="50" relative="1" as="geometry">
            <mxPoint x="340" y="290" as="sourcePoint" />
            <mxPoint x="390" y="240" as="targetPoint" />
          </mxGeometry>
        </mxCell>
        <mxCell id="hhd_9V6kLo_qXtEUQ70--35" value="Επιλογή επιστροφής&amp;nbsp;&lt;div&gt;στο Homepage&lt;/div&gt;" style="text;html=1;align=center;verticalAlign=middle;resizable=0;points=[];autosize=1;strokeColor=none;fillColor=none;rotation=-45;fontColor=light-dark(#FF3333,#ED0202);fontSize=13;" vertex="1" parent="1">
          <mxGeometry x="25" y="150" width="150" height="40" as="geometry" />
        </mxCell>
        <mxCell id="hhd_9V6kLo_qXtEUQ70--36" value="Εμφάνιση αρχικής σελίδας προφίλ του φοιτητή" style="ellipse;shape=umlControl;whiteSpace=wrap;html=1;fontColor=light-dark(#FF3333,#ED0202);strokeColor=light-dark(#FF3333,#ED0202);" vertex="1" parent="1">
          <mxGeometry x="30" y="8" width="90" height="100" as="geometry" />
        </mxCell>
        <mxCell id="hhd_9V6kLo_qXtEUQ70--37" value="" style="shape=umlBoundary;whiteSpace=wrap;html=1;strokeColor=light-dark(#FF3333,#ED0202);" vertex="1" parent="1">
          <mxGeometry x="-190" y="18" width="100" height="80" as="geometry" />
        </mxCell>
        <mxCell id="hhd_9V6kLo_qXtEUQ70--38" value="" style="endArrow=classic;html=1;rounded=0;strokeColor=light-dark(#FF3333,#ED0202);" edge="1" parent="1" source="hhd_9V6kLo_qXtEUQ70--30" target="hhd_9V6kLo_qXtEUQ70--36">
          <mxGeometry width="50" height="50" relative="1" as="geometry">
            <mxPoint x="475" y="220" as="sourcePoint" />
            <mxPoint x="300" y="95" as="targetPoint" />
          </mxGeometry>
        </mxCell>
        <mxCell id="hhd_9V6kLo_qXtEUQ70--39" value="Homepage" style="text;html=1;align=center;verticalAlign=middle;resizable=0;points=[];autosize=1;strokeColor=none;fillColor=none;fontSize=14;fontStyle=1;fontColor=light-dark(#FF3333,#ED0202);" vertex="1" parent="1">
          <mxGeometry x="-180" y="-12" width="90" height="30" as="geometry" />
        </mxCell>
        <mxCell id="hhd_9V6kLo_qXtEUQ70--40" value="" style="endArrow=classic;html=1;rounded=0;strokeColor=light-dark(#FF3333,#ED0202);" edge="1" parent="1" source="hhd_9V6kLo_qXtEUQ70--36" target="hhd_9V6kLo_qXtEUQ70--37">
          <mxGeometry width="50" height="50" relative="1" as="geometry">
            <mxPoint x="200" y="61" as="sourcePoint" />
            <mxPoint x="116" y="64" as="targetPoint" />
          </mxGeometry>
        </mxCell>
        <mxCell id="hhd_9V6kLo_qXtEUQ70--41" value="" style="shape=umlBoundary;whiteSpace=wrap;html=1;strokeColor=light-dark(#FF3333,#ED0202);" vertex="1" parent="1">
          <mxGeometry x="-190" y="430" width="100" height="80" as="geometry" />
        </mxCell>
        <mxCell id="hhd_9V6kLo_qXtEUQ70--42" value="View Available&amp;nbsp;&lt;div&gt;Traineeships&lt;/div&gt;" style="text;html=1;align=center;verticalAlign=middle;resizable=0;points=[];autosize=1;strokeColor=none;fillColor=none;fontSize=14;fontStyle=1;fontColor=light-dark(#FF3333,#ED0202);" vertex="1" parent="1">
          <mxGeometry x="-200" y="510" width="120" height="50" as="geometry" />
        </mxCell>
        <mxCell id="hhd_9V6kLo_qXtEUQ70--43" value="" style="endArrow=none;html=1;rounded=0;strokeColor=light-dark(#FF3333,#ED0202);" edge="1" parent="1" source="hhd_9V6kLo_qXtEUQ70--6">
          <mxGeometry width="50" height="50" relative="1" as="geometry">
            <mxPoint x="360" y="360" as="sourcePoint" />
            <mxPoint x="290" y="570" as="targetPoint" />
            <Array as="points">
              <mxPoint x="650" y="190" />
              <mxPoint x="800" y="150" />
              <mxPoint x="790" y="570" />
            </Array>
          </mxGeometry>
        </mxCell>
        <mxCell id="hhd_9V6kLo_qXtEUQ70--44" value="" style="endArrow=classic;html=1;rounded=0;fontColor=light-dark(#FF3333,#ED0202);strokeColor=light-dark(#FF3333,#ED0202);" edge="1" parent="1" target="hhd_9V6kLo_qXtEUQ70--41">
          <mxGeometry width="50" height="50" relative="1" as="geometry">
            <mxPoint x="290" y="570" as="sourcePoint" />
            <mxPoint x="410" y="310" as="targetPoint" />
          </mxGeometry>
        </mxCell>
        <mxCell id="hhd_9V6kLo_qXtEUQ70--45" value="" style="endArrow=classic;html=1;rounded=0;strokeColor=light-dark(#FF3333,#ED0202);" edge="1" parent="1" source="hhd_9V6kLo_qXtEUQ70--1" target="hhd_9V6kLo_qXtEUQ70--41">
          <mxGeometry width="50" height="50" relative="1" as="geometry">
            <mxPoint x="60" y="264" as="sourcePoint" />
            <mxPoint x="213" y="100" as="targetPoint" />
          </mxGeometry>
        </mxCell>
        <mxCell id="hhd_9V6kLo_qXtEUQ70--46" value="Επιλογή προβολής&amp;nbsp;&lt;div&gt;πληροφοριών εταιρείας&lt;/div&gt;" style="text;html=1;align=center;verticalAlign=middle;resizable=0;points=[];autosize=1;strokeColor=none;fillColor=none;fontSize=13;fontStyle=2;rotation=-45;fontColor=light-dark(#FF3333,#ED0202);" vertex="1" parent="1">
          <mxGeometry x="-150" y="330" width="160" height="40" as="geometry" />
        </mxCell>
        <mxCell id="hhd_9V6kLo_qXtEUQ70--47" value="Εμφάνιση παραθύρου πληροφοριών εταιρείας" style="ellipse;shape=umlControl;whiteSpace=wrap;html=1;fontColor=light-dark(#FF3333,#ED0202);strokeColor=light-dark(#FF3333,#ED0202);" vertex="1" parent="1">
          <mxGeometry x="-310" y="330" width="90" height="100" as="geometry" />
        </mxCell>
        <mxCell id="hhd_9V6kLo_qXtEUQ70--48" value="" style="endArrow=classic;html=1;rounded=0;strokeColor=light-dark(#FF3333,#ED0202);" edge="1" parent="1" source="hhd_9V6kLo_qXtEUQ70--41" target="hhd_9V6kLo_qXtEUQ70--47">
          <mxGeometry width="50" height="50" relative="1" as="geometry">
            <mxPoint x="200" y="62" as="sourcePoint" />
            <mxPoint x="130" y="66" as="targetPoint" />
          </mxGeometry>
        </mxCell>
        <mxCell id="hhd_9V6kLo_qXtEUQ70--49" value="" style="shape=umlBoundary;whiteSpace=wrap;html=1;strokeColor=light-dark(#FF3333,#ED0202);" vertex="1" parent="1">
          <mxGeometry x="-315" y="200" width="100" height="80" as="geometry" />
        </mxCell>
        <mxCell id="hhd_9V6kLo_qXtEUQ70--50" value="Comapny Details" style="text;html=1;align=center;verticalAlign=middle;resizable=0;points=[];autosize=1;strokeColor=none;fillColor=none;fontColor=light-dark(#FF3333,#ED0202);fontStyle=1;fontSize=14;" vertex="1" parent="1">
          <mxGeometry x="-270" y="170" width="130" height="30" as="geometry" />
        </mxCell>
        <mxCell id="hhd_9V6kLo_qXtEUQ70--51" value="" style="endArrow=classic;html=1;rounded=0;strokeColor=light-dark(#FF3333,#ED0202);" edge="1" parent="1" source="hhd_9V6kLo_qXtEUQ70--47" target="hhd_9V6kLo_qXtEUQ70--49">
          <mxGeometry width="50" height="50" relative="1" as="geometry">
            <mxPoint x="-180" y="444" as="sourcePoint" />
            <mxPoint x="-217" y="417" as="targetPoint" />
          </mxGeometry>
        </mxCell>
        <mxCell id="hhd_9V6kLo_qXtEUQ70--52" value="" style="endArrow=classic;html=1;rounded=0;strokeColor=light-dark(#FF3333,#ED0202);" edge="1" parent="1" source="hhd_9V6kLo_qXtEUQ70--1" target="hhd_9V6kLo_qXtEUQ70--49">
          <mxGeometry width="50" height="50" relative="1" as="geometry">
            <mxPoint x="30" y="297" as="sourcePoint" />
            <mxPoint x="-95" y="440" as="targetPoint" />
          </mxGeometry>
        </mxCell>
        <mxCell id="hhd_9V6kLo_qXtEUQ70--53" value="Προβολή πληροφοριών εταιρείας&amp;nbsp;&lt;div&gt;και επιστροφή στις&amp;nbsp;&lt;/div&gt;&lt;div&gt;διαθέσιμες θέσεις&lt;/div&gt;" style="text;html=1;align=center;verticalAlign=middle;resizable=0;points=[];autosize=1;strokeColor=none;fillColor=none;fontStyle=2;fontSize=13;fontColor=light-dark(#FF3333,#ED0202);" vertex="1" parent="1">
          <mxGeometry x="-210" y="200" width="220" height="60" as="geometry" />
        </mxCell>
        <mxCell id="hhd_9V6kLo_qXtEUQ70--55" value="" style="endArrow=classic;html=1;rounded=0;strokeColor=light-dark(#FF3333,#ED0202);" edge="1" parent="1" source="hhd_9V6kLo_qXtEUQ70--49" target="hhd_9V6kLo_qXtEUQ70--6">
          <mxGeometry width="50" height="50" relative="1" as="geometry">
            <mxPoint x="220" y="360" as="sourcePoint" />
            <mxPoint x="460" y="10" as="targetPoint" />
            <Array as="points">
              <mxPoint x="-250" y="-50" />
              <mxPoint x="460" y="-60" />
            </Array>
          </mxGeometry>
        </mxCell>
        <mxCell id="hhd_9V6kLo_qXtEUQ70--56" value="Εμφάνιση μηνύματος επιβεβαιωμένης&amp;nbsp;&lt;div&gt;θέσης πρακτικής&amp;nbsp;&lt;/div&gt;" style="ellipse;shape=umlControl;whiteSpace=wrap;html=1;fontColor=light-dark(#FF3333,#ED0202);strokeColor=light-dark(#FF3333,#ED0202);" vertex="1" parent="1">
          <mxGeometry x="540" y="-16" width="135" height="124" as="geometry" />
        </mxCell>
        <mxCell id="hhd_9V6kLo_qXtEUQ70--57" value="" style="endArrow=classic;html=1;rounded=0;strokeColor=light-dark(#FF3333,#ED0202);" edge="1" parent="1" source="hhd_9V6kLo_qXtEUQ70--6" target="hhd_9V6kLo_qXtEUQ70--56">
          <mxGeometry width="50" height="50" relative="1" as="geometry">
            <mxPoint x="475" y="220" as="sourcePoint" />
            <mxPoint x="300" y="95" as="targetPoint" />
          </mxGeometry>
        </mxCell>
        <mxCell id="hhd_9V6kLo_qXtEUQ70--58" value="Φοιτητής έχει ήδη&amp;nbsp;&lt;div&gt;πρακτική άσκηση&lt;/div&gt;" style="text;html=1;align=center;verticalAlign=middle;resizable=0;points=[];autosize=1;strokeColor=none;fillColor=none;fontSize=13;fontStyle=2;fontColor=light-dark(#FF3333,#ED0202);" vertex="1" parent="1">
          <mxGeometry x="550" y="138" width="130" height="40" as="geometry" />
        </mxCell>
        <mxCell id="hhd_9V6kLo_qXtEUQ70--59" value="" style="endArrow=classic;html=1;rounded=0;strokeColor=light-dark(#FF3333,#ED0202);" edge="1" parent="1" source="hhd_9V6kLo_qXtEUQ70--56" target="hhd_9V6kLo_qXtEUQ70--30">
          <mxGeometry width="50" height="50" relative="1" as="geometry">
            <mxPoint x="549" y="204" as="sourcePoint" />
            <mxPoint x="591" y="113" as="targetPoint" />
          </mxGeometry>
        </mxCell>
      </root>
    </mxGraphModel>
  </diagram>
</mxfile>
